<?xml version="1.0" encoding="UTF-8"?>
<svg id="Layer_1" data-name="Layer 1" xmlns="http://www.w3.org/2000/svg" viewBox="0 0 915.85 647.57">
  <defs>
    <style>
      .cls-1 {
        fill: none;
      }

      .cls-2 {
        fill: #68c4a9;
      }

      .cls-3 {
        fill: #063b4c;
      }
    </style>
  </defs>
  <path class="cls-1" d="m590.84,284.26c-2.14-1.76-4.81-2.98-8-3.64-3.19-.67-6.93-1-11.22-1-2.86,0-5.88.29-9.08.86-3.19.57-5.88,1.24-8.08,2v5.72h14.29c2.48,0,4.69.21,6.65.64,1.95.43,3.59,1.21,4.93,2.36,1.33,1.14,2.36,2.74,3.07,4.79.71,2.05,1.07,4.69,1.07,7.93v6.43c-2.19-.38-4.57-.71-7.15-1-2.57-.29-4.96-.43-7.15-.43-3.24,0-6.17.31-8.79.93-2.62.62-4.86,1.76-6.72,3.43-1.86,1.67-3.31,3.93-4.36,6.79-1.05,2.86-1.57,6.53-1.57,11s.52,8.48,1.57,11.43c1.05,2.95,2.5,5.29,4.36,7,1.86,1.71,4.09,2.88,6.72,3.5,2.62.62,5.55.93,8.79.93,2.86,0,5.62-.5,8.29-1.5,2.67-1,4.91-2.41,6.72-4.22h.71l.71,4.29h10.72v-48.59c0-4.95-.55-9.03-1.64-12.22-1.1-3.19-2.72-5.67-4.86-7.43Zm-6.36,58.24c-1.05.76-2.53,1.43-4.43,2-1.91.57-3.76.86-5.57.86s-3.5-.21-5.07-.64-2.93-1.17-4.07-2.21c-1.14-1.05-2.05-2.5-2.71-4.36-.67-1.86-1-4.22-1-7.07,0-5.33,1.24-8.93,3.72-10.79,2.48-1.86,5.53-2.79,9.15-2.79h10v25.01Z"/>
  <path class="cls-1" d="m640.93,279.62c-4.86,0-9.03.6-12.5,1.79-3.48,1.19-6.36,3.22-8.65,6.07-2.29,2.86-3.98,6.67-5.07,11.43-1.1,4.76-1.64,10.72-1.64,17.86s.52,13.1,1.57,17.86c1.05,4.76,2.57,8.57,4.57,11.43s4.48,4.88,7.43,6.07c2.95,1.19,6.29,1.79,10,1.79,2.86,0,5.41-.33,7.65-1,2.24-.67,4.45-1.52,6.65-2.57,0,4.48-.36,8.22-1.07,11.22-.71,3-1.83,5.43-3.36,7.29-1.53,1.86-3.45,3.17-5.79,3.93-2.34.76-5.12,1.14-8.36,1.14h-14.29v5.72c2.19.76,4.88,1.43,8.07,2,3.19.57,6.22.86,9.08.86,4.95,0,9.24-.6,12.86-1.79,3.62-1.19,6.6-3.17,8.93-5.93,2.33-2.76,4.05-6.43,5.15-11,1.09-4.57,1.64-10.24,1.64-17.01v-62.88c-3.62-1.43-7.27-2.5-10.93-3.21-3.67-.71-7.65-1.07-11.93-1.07Zm10,62.88c-1.05.76-2.53,1.43-4.43,2-1.91.57-3.76.86-5.57.86-2.29,0-4.36-.4-6.22-1.21-1.86-.81-3.43-2.29-4.72-4.43s-2.29-5.07-3-8.79-1.07-8.43-1.07-14.15.36-10.41,1.07-14.08c.71-3.67,1.71-6.57,3-8.72s2.86-3.64,4.72-4.5c1.86-.86,3.93-1.29,6.22-1.29h10v54.31Z"/>
  <polygon class="cls-1" points="585.98 274.81 584.45 267.8 568.21 271.34 569.26 276.14 585.98 274.81"/>
  <rect class="cls-1" x="683.09" y="281.05" width="12.86" height="71.46"/>
  <rect class="cls-1" x="715.96" y="252.46" width="12.86" height="100.04"/>
  <rect class="cls-1" x="683.09" y="255.32" width="12.86" height="15.72"/>
  <path class="cls-2" d="m565.33,320.27c-2.48,1.86-3.72,5.46-3.72,10.79,0,2.86.33,5.22,1,7.07.67,1.86,1.57,3.31,2.71,4.36,1.14,1.05,2.5,1.79,4.07,2.21s3.26.64,5.07.64,3.67-.29,5.57-.86c1.9-.57,3.38-1.24,4.43-2v-25.01h-10c-3.62,0-6.67.93-9.15,2.79Z"/>
  <path class="cls-2" d="m634.71,289.48c-1.86.86-3.43,2.36-4.72,4.5s-2.29,5.05-3,8.72c-.71,3.67-1.07,8.36-1.07,14.08s.36,10.43,1.07,14.15,1.71,6.65,3,8.79,2.86,3.62,4.72,4.43c1.86.81,3.93,1.21,6.22,1.21,1.81,0,3.67-.29,5.57-.86,1.91-.57,3.38-1.24,4.43-2v-54.31h-10c-2.29,0-4.36.43-6.22,1.29Z"/>
  <path class="cls-2" d="m744.73,230.54l-205.42.23s.07,64.8.1,90.72c.03,22.61,2.47,31.26,7.84,45.32.89,2.33,15.97,21.12,28.54,33.05,15.68,14.89,28.91,25.56,29.13,25.66,9.46,4.59,33.24,10.55,63.58,10.52,20.74-.02,76.46-.09,76.46-.09l-.23-205.42Zm-160.28,37.26l1.53,7.02-16.73,1.33-1.05-4.8,16.25-3.54Zm12.88,84.7h-10.72l-.71-4.29h-.71c-1.81,1.81-4.05,3.22-6.72,4.22-2.67,1-5.43,1.5-8.29,1.5-3.24,0-6.17-.31-8.79-.93-2.62-.62-4.86-1.79-6.72-3.5-1.86-1.72-3.31-4.05-4.36-7-1.05-2.95-1.57-6.76-1.57-11.43s.52-8.15,1.57-11c1.05-2.86,2.5-5.12,4.36-6.79,1.86-1.67,4.09-2.81,6.72-3.43,2.62-.62,5.55-.93,8.79-.93,2.19,0,4.57.14,7.15.43,2.57.29,4.95.62,7.15,1v-6.43c0-3.24-.36-5.88-1.07-7.93-.71-2.05-1.74-3.64-3.07-4.79-1.34-1.14-2.98-1.93-4.93-2.36-1.95-.43-4.17-.64-6.65-.64h-14.29v-5.72c2.19-.76,4.88-1.43,8.08-2,3.19-.57,6.22-.86,9.08-.86,4.29,0,8.03.33,11.22,1,3.19.67,5.86,1.88,8,3.64,2.14,1.76,3.76,4.24,4.86,7.43,1.09,3.19,1.64,7.27,1.64,12.22v48.59Zm66.45-5.72c0,6.76-.55,12.43-1.64,17.01-1.1,4.57-2.81,8.24-5.15,11-2.33,2.76-5.31,4.74-8.93,5.93-3.62,1.19-7.91,1.79-12.86,1.79-2.86,0-5.88-.29-9.08-.86-3.19-.57-5.88-1.24-8.07-2v-5.72h14.29c3.24,0,6.02-.38,8.36-1.14,2.33-.76,4.26-2.07,5.79-3.93,1.52-1.86,2.64-4.29,3.36-7.29.71-3,1.07-6.74,1.07-11.22-2.19,1.05-4.41,1.91-6.65,2.57-2.24.67-4.79,1-7.65,1-3.72,0-7.05-.6-10-1.79-2.95-1.19-5.43-3.22-7.43-6.07s-3.53-6.67-4.57-11.43c-1.05-4.76-1.57-10.72-1.57-17.86s.55-13.1,1.64-17.86c1.09-4.76,2.79-8.58,5.07-11.43,2.29-2.86,5.17-4.88,8.65-6.07,3.48-1.19,7.65-1.79,12.5-1.79,4.29,0,8.26.36,11.93,1.07,3.67.71,7.31,1.79,10.93,3.21v62.88Zm19.29-91.46h12.86v15.72h-12.86v-15.72Zm0,25.72h12.86v71.46h-12.86v-71.46Zm45.73,71.46h-12.86v-100.04h12.86v100.04Z"/>
  <path class="cls-3" d="m570.82,396.85c-16.66-16.8-23.06-29.17-23.06-29.17,0,0,12,16.35,33.11,8.84,0,0,5.06,35.6,24.06,49,0,0-17.44-11.86-34.1-28.67Z"/>
  <g>
    <path class="cls-2" d="m264.83,388.18c.65-.08,1.08-.36,1.3-.81.13-.25.19-.61.19-1.09,0-.96-.34-1.66-1.02-2.1-.68-.43-1.66-.65-2.93-.65-1.47,0-2.51.4-3.13,1.2-.34.44-.57,1.1-.67,1.97h-2.63c.05-2.07.72-3.52,2.01-4.33,1.29-.81,2.78-1.22,4.48-1.22,1.97,0,3.57.38,4.8,1.13,1.22.75,1.83,1.92,1.83,3.51v9.67c0,.29.06.53.18.7s.37.27.76.27c.12,0,.27,0,.42-.02s.32-.04.5-.07v2.08c-.44.12-.77.2-1,.23-.23.03-.54.05-.94.05-.97,0-1.68-.35-2.12-1.03-.23-.37-.39-.88-.49-1.55-.57.75-1.4,1.41-2.47,1.96-1.08.55-2.26.83-3.56.83-1.56,0-2.83-.47-3.82-1.42-.99-.94-1.48-2.12-1.48-3.54,0-1.55.49-2.76,1.46-3.61s2.25-1.38,3.82-1.58l4.5-.56Zm-5.94,7.62c.6.47,1.3.7,2.12.7.99,0,1.95-.23,2.88-.69,1.57-.76,2.35-2.01,2.35-3.74v-2.27c-.34.22-.79.4-1.33.55-.54.15-1.07.25-1.6.31l-1.7.22c-1.02.14-1.79.35-2.3.64-.87.49-1.31,1.27-1.31,2.34,0,.81.3,1.45.89,1.92Z"/>
    <path class="cls-2" d="m283.01,382.23c.53.37,1.07.9,1.62,1.6v-2.12h2.6v15.26c0,2.13-.31,3.81-.94,5.05-1.17,2.28-3.37,3.42-6.61,3.42-1.8,0-3.31-.41-4.54-1.21-1.23-.81-1.92-2.08-2.06-3.8h2.87c.13.75.4,1.33.81,1.74.63.63,1.63.94,2.99.94,2.15,0,3.56-.76,4.22-2.29.4-.9.58-2.5.55-4.81-.56.86-1.24,1.49-2.03,1.91-.79.42-1.84.63-3.14.63-1.81,0-3.39-.64-4.75-1.93-1.36-1.29-2.04-3.42-2.04-6.4,0-2.81.68-5,2.05-6.58,1.37-1.58,3.02-2.37,4.95-2.37,1.31,0,2.45.32,3.43.97Zm.35,3.02c-.85-1-1.94-1.5-3.26-1.5-1.97,0-3.32.93-4.05,2.79-.38.99-.58,2.29-.58,3.9,0,1.89.38,3.33,1.15,4.32.76.99,1.79,1.48,3.08,1.48,2.02,0,3.43-.91,4.26-2.74.46-1.03.69-2.24.69-3.62,0-2.08-.43-3.62-1.28-4.62Z"/>
    <path class="cls-2" d="m291.53,375.32h2.87v3.2h-2.87v-3.2Zm0,6.31h2.87v16.7h-2.87v-16.7Z"/>
    <path class="cls-2" d="m298.74,375.32h2.82v23.01h-2.82v-23.01Z"/>
    <path class="cls-2" d="m305.79,375.32h2.87v3.2h-2.87v-3.2Zm0,6.31h2.87v16.7h-2.87v-16.7Z"/>
    <path class="cls-2" d="m322.13,382.07c.5.31,1.07.86,1.7,1.64v-8.47h2.71v23.09h-2.54v-2.33c-.66,1.03-1.43,1.78-2.32,2.24s-1.92.69-3.07.69c-1.86,0-3.48-.79-4.84-2.36-1.36-1.57-2.05-3.66-2.05-6.27,0-2.44.62-4.56,1.86-6.35,1.24-1.79,3.02-2.69,5.33-2.69,1.28,0,2.35.27,3.22.82Zm-6.3,12.58c.76,1.21,1.97,1.82,3.65,1.82,1.3,0,2.37-.56,3.2-1.68.84-1.12,1.26-2.73,1.26-4.83s-.43-3.69-1.29-4.71c-.86-1.02-1.93-1.53-3.2-1.53-1.41,0-2.56.54-3.44,1.63s-1.32,2.68-1.32,4.79c0,1.8.38,3.3,1.14,4.51Z"/>
    <path class="cls-2" d="m339.75,388.18c.65-.08,1.08-.36,1.3-.81.12-.25.19-.61.19-1.09,0-.96-.34-1.66-1.02-2.1s-1.66-.65-2.93-.65c-1.47,0-2.51.4-3.13,1.2-.34.44-.57,1.1-.67,1.97h-2.63c.05-2.07.72-3.52,2.01-4.33s2.78-1.22,4.48-1.22c1.97,0,3.57.38,4.8,1.13,1.22.75,1.83,1.92,1.83,3.51v9.67c0,.29.06.53.18.7s.37.27.76.27c.13,0,.27,0,.42-.02.16-.02.32-.04.5-.07v2.08c-.44.12-.77.2-1,.23-.23.03-.54.05-.94.05-.97,0-1.68-.35-2.12-1.03-.23-.37-.39-.88-.49-1.55-.57.75-1.4,1.41-2.48,1.96-1.08.55-2.26.83-3.56.83-1.56,0-2.83-.47-3.81-1.42-.99-.94-1.48-2.12-1.48-3.54,0-1.55.49-2.76,1.46-3.61s2.25-1.38,3.82-1.58l4.5-.56Zm-5.94,7.62c.6.47,1.3.7,2.12.7.99,0,1.95-.23,2.88-.69,1.57-.76,2.35-2.01,2.35-3.74v-2.27c-.34.22-.79.4-1.33.55-.54.15-1.07.25-1.59.31l-1.7.22c-1.02.14-1.79.35-2.3.64-.87.49-1.31,1.27-1.31,2.34,0,.81.3,1.45.89,1.92Z"/>
    <path class="cls-2" d="m357.82,382.07c.5.31,1.07.86,1.7,1.64v-8.47h2.71v23.09h-2.54v-2.33c-.66,1.03-1.43,1.78-2.32,2.24s-1.92.69-3.07.69c-1.86,0-3.48-.79-4.84-2.36-1.36-1.57-2.05-3.66-2.05-6.27,0-2.44.62-4.56,1.86-6.35,1.24-1.79,3.02-2.69,5.33-2.69,1.28,0,2.35.27,3.22.82Zm-6.3,12.58c.76,1.21,1.97,1.82,3.65,1.82,1.3,0,2.37-.56,3.2-1.68.84-1.12,1.26-2.73,1.26-4.83s-.43-3.69-1.29-4.71c-.86-1.02-1.93-1.53-3.2-1.53-1.41,0-2.56.54-3.44,1.63s-1.32,2.68-1.32,4.79c0,1.8.38,3.3,1.14,4.51Z"/>
    <path class="cls-2" d="m376.81,382.02c1.11.56,1.96,1.28,2.54,2.17.56.85.93,1.83,1.12,2.96.16.77.25,2,.25,3.7h-12.2c.05,1.71.45,3.08,1.2,4.11s1.9,1.55,3.47,1.55c1.46,0,2.63-.49,3.5-1.46.49-.57.83-1.22,1.04-1.97h2.77c-.07.62-.32,1.3-.73,2.06-.41.76-.87,1.38-1.38,1.86-.85.84-1.9,1.4-3.16,1.69-.67.17-1.44.25-2.29.25-2.08,0-3.83-.76-5.28-2.28-1.44-1.52-2.16-3.65-2.16-6.38s.73-4.88,2.18-6.56,3.35-2.52,5.7-2.52c1.18,0,2.33.28,3.44.84Zm1.01,6.59c-.11-1.22-.38-2.2-.79-2.93-.77-1.36-2.05-2.04-3.84-2.04-1.28,0-2.36.47-3.23,1.4-.87.94-1.33,2.12-1.38,3.56h9.24Z"/>
    <path class="cls-2" d="m393.2,381.55h2.68v2.38c.79-.98,1.63-1.69,2.52-2.12.89-.43,1.87-.64,2.96-.64,2.38,0,3.99.83,4.82,2.49.46.91.69,2.21.69,3.9v10.76h-2.87v-10.57c0-1.02-.15-1.85-.45-2.48-.5-1.04-1.41-1.57-2.73-1.57-.67,0-1.22.07-1.64.2-.77.23-1.45.69-2.04,1.38-.47.55-.78,1.13-.92,1.72s-.21,1.43-.21,2.53v8.79h-2.82v-16.78Z"/>
    <path class="cls-2" d="m423.2,383.23c1.48,1.44,2.22,3.56,2.22,6.36s-.65,4.94-1.96,6.7-3.33,2.65-6.08,2.65c-2.29,0-4.11-.78-5.46-2.34s-2.02-3.65-2.02-6.28c0-2.82.71-5.06,2.13-6.73,1.42-1.67,3.33-2.5,5.72-2.5,2.15,0,3.96.72,5.45,2.16Zm-1.75,11.15c.69-1.41,1.03-2.99,1.03-4.72,0-1.57-.25-2.84-.74-3.82-.79-1.54-2.14-2.32-4.06-2.32-1.7,0-2.94.66-3.72,1.97s-1.16,2.9-1.16,4.76.39,3.27,1.16,4.46c.77,1.19,2,1.78,3.69,1.78,1.85,0,3.12-.71,3.8-2.12Z"/>
    <path class="cls-2" d="m437.8,375.32h2.87v3.2h-2.87v-3.2Zm0,6.31h2.87v16.7h-2.87v-16.7Z"/>
    <path class="cls-2" d="m444.93,381.55h2.68v2.38c.79-.98,1.63-1.69,2.52-2.12.89-.43,1.87-.64,2.96-.64,2.38,0,3.99.83,4.83,2.49.46.91.69,2.21.69,3.9v10.76h-2.87v-10.57c0-1.02-.15-1.85-.45-2.48-.5-1.04-1.41-1.57-2.73-1.57-.67,0-1.22.07-1.65.2-.77.23-1.45.69-2.04,1.38-.47.55-.78,1.13-.92,1.72s-.21,1.43-.21,2.53v8.79h-2.82v-16.78Z"/>
    <path class="cls-2" d="m463.34,376.87h2.85v4.68h2.68v2.3h-2.68v10.95c0,.58.2.98.6,1.17.22.11.58.17,1.1.17.14,0,.28,0,.44-.01.16,0,.34-.02.55-.05v2.24c-.32.09-.66.16-1.01.2s-.73.06-1.14.06c-1.32,0-2.21-.34-2.68-1.01-.47-.67-.71-1.55-.71-2.62v-11.11h-2.27v-2.3h2.27v-4.68Z"/>
    <path class="cls-2" d="m482.05,382.02c1.11.56,1.96,1.28,2.54,2.17.56.85.93,1.83,1.12,2.96.17.77.25,2,.25,3.7h-12.2c.05,1.71.45,3.08,1.2,4.11.75,1.03,1.9,1.55,3.47,1.55,1.46,0,2.63-.49,3.5-1.46.49-.57.83-1.22,1.04-1.97h2.77c-.07.62-.32,1.3-.73,2.06s-.87,1.38-1.38,1.86c-.85.84-1.9,1.4-3.16,1.69-.67.17-1.44.25-2.29.25-2.08,0-3.83-.76-5.28-2.28-1.44-1.52-2.16-3.65-2.16-6.38s.73-4.88,2.18-6.56c1.45-1.68,3.35-2.52,5.7-2.52,1.18,0,2.33.28,3.44.84Zm1.01,6.59c-.11-1.22-.38-2.2-.79-2.93-.77-1.36-2.05-2.04-3.84-2.04-1.28,0-2.36.47-3.23,1.4-.87.94-1.33,2.12-1.38,3.56h9.24Z"/>
    <path class="cls-2" d="m489.61,381.55h2.68v2.9c.22-.56.76-1.25,1.61-2.06.86-.81,1.84-1.21,2.96-1.21.05,0,.14,0,.27.02.13,0,.34.03.64.06v2.98c-.17-.03-.32-.05-.46-.06-.14,0-.29-.02-.46-.02-1.42,0-2.51.46-3.27,1.37-.76.91-1.14,1.97-1.14,3.16v9.65h-2.82v-16.78Z"/>
    <path class="cls-2" d="m500.22,375.32h2.87v3.2h-2.87v-3.2Zm0,6.31h2.87v16.7h-2.87v-16.7Z"/>
    <path class="cls-2" d="m519.5,383.23c1.48,1.44,2.22,3.56,2.22,6.36s-.65,4.94-1.96,6.7-3.33,2.65-6.08,2.65c-2.29,0-4.11-.78-5.46-2.34s-2.02-3.65-2.02-6.28c0-2.82.71-5.06,2.13-6.73,1.42-1.67,3.33-2.5,5.72-2.5,2.15,0,3.96.72,5.44,2.16Zm-1.75,11.15c.69-1.41,1.03-2.99,1.03-4.72,0-1.57-.25-2.84-.74-3.82-.78-1.54-2.14-2.32-4.06-2.32-1.7,0-2.94.66-3.72,1.97s-1.16,2.9-1.16,4.76.39,3.27,1.16,4.46c.77,1.19,2,1.78,3.69,1.78,1.85,0,3.12-.71,3.8-2.12Z"/>
    <path class="cls-2" d="m525.27,381.55h2.68v2.9c.22-.56.76-1.25,1.61-2.06.86-.81,1.84-1.21,2.96-1.21.05,0,.14,0,.27.02.13,0,.34.03.64.06v2.98c-.17-.03-.32-.05-.46-.06-.14,0-.29-.02-.46-.02-1.42,0-2.51.46-3.27,1.37-.76.91-1.14,1.97-1.14,3.16v9.65h-2.82v-16.78Z"/>
  </g>
  <g>
    <path class="cls-3" d="m268.23,247.73v17.77h-14.54v-17.77h14.54Zm0,109.82h-14.54v-80.75h14.54v80.75Z"/>
    <path class="cls-3" d="m304.57,357.55h-14.54v-80.75h12.11l.81,4.84h.81c2.04-2.04,4.58-3.63,7.59-4.76,3.01-1.13,6.14-1.7,9.37-1.7,3.88,0,7.35.35,10.42,1.05,3.07.7,5.68,1.97,7.83,3.8,2.15,1.83,3.82,4.31,5.01,7.43,1.18,3.12,1.78,7.11,1.78,11.95v58.14h-14.54v-58.14c0-2.8-.38-5.14-1.13-7.03-.75-1.88-1.83-3.39-3.23-4.52-1.4-1.13-3.02-1.91-4.85-2.34-1.83-.43-3.88-.65-6.14-.65-2.05,0-4.15.32-6.3.97-2.16.65-3.82,1.4-5.01,2.26v69.45Z"/>
    <path class="cls-3" d="m383.71,288.92v42.8c0,3.66.35,6.65,1.05,8.96.7,2.32,1.62,4.12,2.75,5.41,1.13,1.29,2.37,2.18,3.71,2.66,1.34.49,2.61.73,3.8.73h14.54v6.46c-.97.43-2.24.84-3.8,1.21-1.56.38-3.18.73-4.84,1.05-1.67.32-3.31.56-4.93.73-1.62.16-3.02.24-4.2.24-3.23,0-6.22-.38-8.96-1.13-2.75-.75-5.14-2.12-7.19-4.12-2.05-1.99-3.63-4.76-4.76-8.32s-1.7-8.18-1.7-13.89v-42.8h-9.69v-10.5h9.69v-19.38h14.54v19.38h22.61v7.27c-2.48.86-5.52,1.62-9.12,2.26-3.61.65-7.03.97-10.25.97h-3.23Z"/>
    <path class="cls-3" d="m474.15,322.02h-41.99c0,5.28.43,9.67,1.29,13.16.86,3.5,2.18,6.3,3.96,8.4,1.78,2.1,4.09,3.61,6.95,4.52,2.85.92,6.32,1.37,10.42,1.37h16.15v6.46c-2.48.86-5.52,1.62-9.12,2.26-3.61.65-7.03.97-10.26.97-6.03,0-11.2-.67-15.5-2.02-4.31-1.34-7.83-3.63-10.58-6.86-2.75-3.23-4.74-7.54-5.98-12.92-1.24-5.38-1.86-12.11-1.86-20.19s.59-14.8,1.78-20.19c1.18-5.38,2.96-9.69,5.33-12.92,2.37-3.23,5.33-5.52,8.88-6.87,3.55-1.34,7.64-2.02,12.27-2.02s8.72.67,12.27,2.02c3.55,1.35,6.51,3.63,8.88,6.87,2.37,3.23,4.14,7.54,5.33,12.92,1.18,5.38,1.78,12.11,1.78,20.19v4.85Zm-14.54-9.69c0-5.49-.38-10.04-1.13-13.65-.75-3.61-1.75-6.48-2.99-8.64-1.24-2.15-2.69-3.69-4.36-4.6-1.67-.91-3.42-1.37-5.25-1.37s-3.58.46-5.25,1.37c-1.67.92-3.12,2.45-4.36,4.6-1.24,2.16-2.24,5.04-2.99,8.64-.75,3.61-1.13,8.16-1.13,13.65h27.46Z"/>
    <path class="cls-3" d="m506.45,357.55h-14.54v-80.75h12.27l.81,6.46h.81c1.94-1.62,4.55-3.09,7.83-4.44,3.28-1.34,7.35-2.02,12.19-2.02h8.08v12.11h-16.15c-2.05,0-4.04.24-5.98.73-1.94.48-3.71,1.32-5.33,2.5v65.41Z"/>
  </g>
  <g>
    <polygon class="cls-3" points="172.07 314.59 170.88 322.3 232.28 322.15 233.46 314.53 172.07 314.59"/>
    <polygon class="cls-3" points="177 294.2 175.83 301.82 237.22 301.76 238.41 294.05 177 294.2"/>
    <polygon class="cls-3" points="216.42 276.24 206.89 336.9 214.69 336.9 224.22 276.24 216.42 276.24"/>
    <polygon class="cls-3" points="203.32 277.88 195.52 277.88 185.99 338.53 193.79 338.53 203.32 277.88"/>
  </g>
</svg>