<svg width="445" height="445" viewBox="0 0 445 445" fill="none" xmlns="http://www.w3.org/2000/svg">
<path d="M56.2967 194.32C50.9303 198.347 48.2471 206.143 48.2471 217.684C48.2471 223.877 48.9611 228.987 50.4109 232.993C51.8607 237.021 53.8083 240.16 56.2751 242.434C58.7419 244.707 61.6848 246.31 65.082 247.219C68.4793 248.129 72.1363 248.605 76.0529 248.605C79.9695 248.605 83.9943 247.977 88.1057 246.743C92.217 245.509 95.4195 244.058 97.6916 242.412V188.257H76.0529C68.2197 188.257 61.6198 190.271 56.2534 194.298L56.2967 194.32Z" fill="#68C4A9"/>
<path d="M206.443 127.649C202.419 129.511 199.021 132.759 196.23 137.393C193.438 142.027 191.275 148.328 189.738 156.275C188.202 164.222 187.423 174.377 187.423 186.763C187.423 199.149 188.202 209.347 189.738 217.402C191.275 225.458 193.438 231.802 196.23 236.436C199.021 241.07 202.419 244.274 206.443 246.028C210.468 247.782 214.947 248.648 219.903 248.648C223.819 248.648 227.844 248.02 231.955 246.786C236.088 245.552 239.269 244.101 241.541 242.455V124.856H219.903C214.947 124.856 210.468 125.787 206.443 127.649Z" fill="#68C4A9"/>
<path d="M444.502 0.0216415L0 0.519694C0 0.519694 0.151418 140.834 0.216334 196.96C0.28125 245.918 5.56115 264.648 17.1811 295.093C19.107 300.138 51.7381 340.825 78.938 366.658C112.867 398.9 141.495 422.004 141.971 422.22C162.442 432.159 213.899 445.065 279.55 445C324.429 444.956 445 444.805 445 444.805L444.502 0V0.0216415ZM97.6771 80.7023L100.988 95.9031L64.7863 98.783L62.5142 88.3893L97.6771 80.724V80.7023ZM125.548 264.107H102.351L100.815 254.818H99.2784C95.3618 258.737 90.5146 261.79 84.7371 263.955C78.9596 266.121 72.9873 267.203 66.7987 267.203C59.7877 267.203 53.4476 266.532 47.7783 265.19C42.109 263.847 37.2618 261.314 33.237 257.611C29.2122 253.887 26.0746 248.841 23.8026 242.454C21.5305 236.066 20.4053 227.816 20.4053 217.704C20.4053 207.592 21.5305 200.056 23.8026 193.885C26.0746 187.692 29.2122 182.798 33.237 179.182C37.2618 175.566 42.0873 173.098 47.7783 171.755C53.4476 170.413 59.7877 169.741 66.7987 169.741C71.5375 169.741 76.6876 170.044 82.2704 170.672C87.8315 171.3 92.9815 172.015 97.742 172.838V158.915C97.742 151.899 96.963 146.182 95.4266 141.743C93.8903 137.304 91.6616 133.862 88.7837 131.371C85.8841 128.903 82.3352 127.192 78.1157 126.261C73.8961 125.33 69.0924 124.875 63.726 124.875H32.8042V112.49C37.5431 110.844 43.3639 109.393 50.2883 108.159C57.1911 106.925 63.7476 106.297 69.9363 106.297C79.2193 106.297 87.3121 107.011 94.2149 108.462C101.118 109.913 106.895 112.533 111.526 116.344C116.157 120.155 119.662 125.525 122.042 132.432C124.401 139.34 125.591 148.174 125.591 158.893V264.107H125.548ZM269.337 251.721C269.337 266.359 268.147 278.636 265.788 288.554C263.408 298.449 259.708 306.396 254.644 312.372C249.602 318.349 243.154 322.636 235.321 325.213C227.488 327.79 218.205 329.089 207.494 329.089C201.305 329.089 194.77 328.461 187.846 327.227C180.943 325.992 175.122 324.542 170.383 322.896V310.51H201.305C208.316 310.51 214.331 309.687 219.395 308.042C224.437 306.396 228.613 303.559 231.924 299.532C235.213 295.504 237.636 290.243 239.194 283.747C240.731 277.251 241.51 269.152 241.51 259.451C236.771 261.725 231.967 263.587 227.12 265.016C222.273 266.467 216.755 267.182 210.566 267.182C202.517 267.182 195.311 265.883 188.928 263.306C182.544 260.729 177.178 256.333 172.85 250.162C168.522 243.991 165.212 235.719 162.961 225.412C160.689 215.105 159.564 202.2 159.564 186.739C159.564 171.279 160.754 158.373 163.113 148.066C165.471 137.759 169.15 129.488 174.083 123.316C179.039 117.123 185.271 112.749 192.801 110.173C200.331 107.596 209.354 106.297 219.849 106.297C229.132 106.297 237.723 107.076 245.664 108.614C253.606 110.151 261.482 112.49 269.315 115.564V251.721H269.337ZM311.078 53.6789H338.905V87.7181H311.078V53.6789ZM311.078 109.372H338.905V264.107H311.078V109.372ZM410.032 264.107H382.204V47.486H410.032V264.107Z" fill="#68C4A9"/>
<path d="M68.182 360.137C32.132 323.759 18.2832 296.974 18.2832 296.974C18.2832 296.974 44.2496 332.377 89.9289 316.116C89.9289 316.116 100.878 393.202 141.992 422.218C141.992 422.218 104.254 396.537 68.2037 360.137H68.182Z" fill="#063B4C"/>
</svg>
